<?xml version="1.0" encoding="utf-8"?>
<!-- Generator: Adobe Illustrator 22.0.1, SVG Export Plug-In . SVG Version: 6.00 Build 0)  -->
<svg version="1.1" id="圖層_1" xmlns="http://www.w3.org/2000/svg" xmlns:xlink="http://www.w3.org/1999/xlink" x="0px" y="0px"
	 width="36px" height="36px" viewBox="0 0 36 36" style="enable-background:new 0 0 36 36;" xml:space="preserve">
<style type="text/css">
	.st0{fill:#FFFFFF;}
	.st1{fill:#ED1C24;}
</style>
<ellipse transform="matrix(0.7852 -0.6192 0.6192 0.7852 -7.2797 15.011)" class="st0" cx="18" cy="18" rx="18.1" ry="14.2"/>
<path class="st1" d="M3.3,21.4C3.3,21.4,3.3,21.4,3.3,21.4c0-0.1,0.1-0.2,0.1-0.3c0-0.1,0-0.1,0.1-0.2c0,0,0-0.1,0-0.1
	c0.4-0.9,0.8-1.7,1.3-2.5c0.1-0.1,0.1-0.3,0.2-0.4l-2.2,0l0.5-1.2c2.9-0.7,5.5-2.2,7.6-4.2l0.1,0h1.5l-1.9,4.1l3.1,0l-0.6,1.2
	l-3.1,0c-0.8,1.6-1.4,3.3-1.9,5c-0.4,2.3,0,4,2.1,4.7c1.5,0.4,3.1,0.3,4.6-0.2c4.4-1.5,8.4-4.1,11.4-7.7c5.2-6,5.3-12.1,0.2-13.7
	c-3.2-1-7.8,0.1-12,2.6c5.3-3.4,11-5,15-3.7c0.7,0.2,1.4,0.5,1.9,0.9C24.7-1.5,13.3-2,5.9,4.7c-6.6,6-7.8,15.8-2.9,23.3
	C2.3,25.8,2.4,23.5,3.3,21.4z M33.3,8.5c1.2,3.3-0.3,8.2-4.5,13c-6.2,7.3-16.1,11.6-22,9.8c-0.7-0.2-1.3-0.5-1.9-0.9
	c6.8,7.3,18.2,7.6,25.4,0.8C36.6,25.2,37.8,15.7,33.3,8.5z"/>
</svg>
