<?xml version="1.0" encoding="utf-8"?>
<!-- Generator: Adobe Illustrator 23.0.1, SVG Export Plug-In . SVG Version: 6.00 Build 0)  -->
<svg version="1.1" id="Layer_1" xmlns="http://www.w3.org/2000/svg" xmlns:xlink="http://www.w3.org/1999/xlink" x="0px" y="0px"
	 width="106.8px" height="36px" viewBox="0 0 106.8 36" style="enable-background:new 0 0 106.8 36;" xml:space="preserve">
<style type="text/css">
	.st0{fill:#FFFFFF;}
	.st1{fill:#ED1C24;}
</style>
<g>
	<path class="st0" d="M41.4,8.4h9.8v2h-3.6v10.1H45V10.5h-3.6C41.4,10.5,41.4,8.4,41.4,8.4z M56.3,10.5h3.2c1.1,0,1.8,0.5,1.8,1.5
		c0,1.1-0.7,1.6-1.8,1.7h-3.2V10.5z M56.3,15.7h2.7c0,0,1.7,3.7,1.9,4.8h3.2l-2.5-5c1.7-0.4,2.2-2.5,2.2-4.1c0-2.5-2.7-3.1-5-3.1
		h-5.1v12.1h2.6L56.3,15.7L56.3,15.7z M67.4,8.4h8.7v2H70v2.8h5.6v2H70v3.2h6.3v2h-8.9V8.4z M86.7,20.5l-4.4-8.1l0,0v8h-2.4V8.4H83
		l4.4,7.9l0,0V8.4h2.4v12.1H86.7z M96.3,10.5h1.3c3.1,0,3.5,2,3.5,3.9s-0.5,4.1-3.5,4h-1.3V10.5z M93.7,20.5h4.1
		c3.8,0,6.1-1.8,6.1-6.1c0-4.2-2.3-6.1-6.1-6.1h-4.1V20.5z M49.6,30.5h-1.3v-5.3L47,30.5h-1.3l-1.3-5.3l0,5.3h-1.3v-6.7h2l1.2,4.6
		l1.2-4.6h2C49.6,23.8,49.6,30.5,49.6,30.5z M59.8,30.5h-1.4v-6.7h1.4V30.5z M86.5,26.2c-0.1,0.2-0.2,0.3-0.4,0.4
		c-0.1,0-0.2,0.1-0.4,0.1c-0.2,0-0.4,0-0.7,0c0,0-0.1,0-0.2,0h-1v-1.7h1.1c0.5,0,0.8,0,0.9,0c0.1,0,0.3,0.1,0.4,0.1
		c0.1,0.1,0.2,0.2,0.3,0.3c0.1,0.1,0.1,0.3,0.1,0.4C86.6,25.9,86.6,26,86.5,26.2z M86.6,27.7c0,0,0.3-0.1,0.4-0.1
		c0.3-0.1,0.6-0.4,0.8-0.7c0.2-0.3,0.2-0.8,0.2-1.2c0-0.4-0.1-0.7-0.3-1c-0.2-0.4-0.5-0.6-0.8-0.7c-0.2-0.1-0.3-0.1-0.5-0.1
		c-0.3,0-0.6-0.1-1.1-0.1h-2.9v6.7h1.4v-2.6l1.3,0l1.4,2.7h1.6L86.6,27.7z M99.9,29c-0.3,0.3-0.7,0.4-1.2,0.4c-0.4,0-0.7-0.1-1-0.3
		c-0.2-0.1-0.4-0.3-0.5-0.6c-0.1-0.2-0.2-0.4-0.2-0.6c-0.1-0.3-0.1-0.6-0.1-0.9c0-0.6,0.1-1.1,0.4-1.5c0.3-0.5,0.8-0.8,1.5-0.8
		c0.7,0,1.2,0.3,1.6,0.9c0.2,0.4,0.3,0.9,0.3,1.4C100.6,28,100.4,28.6,99.9,29z M101.2,24.7c-0.6-0.7-1.4-1-2.5-1
		c-1,0-1.8,0.3-2.4,0.9c-0.6,0.6-0.8,1.5-0.8,2.6c0,0.9,0.2,1.7,0.7,2.3c0.6,0.8,1.4,1.1,2.6,1.1c1.1,0,1.9-0.4,2.5-1.1
		c0.5-0.6,0.7-1.4,0.7-2.4C102,26.1,101.7,25.3,101.2,24.7z M72.9,26c-0.1-0.4-0.3-1.2-1.5-1.2c-0.7,0-1.7,0.4-1.7,2.3
		c0,1.2,0.5,2.3,1.7,2.3c0.8,0,1.3-0.4,1.5-1.3h1.4c-0.3,1.5-1.2,2.5-2.9,2.5c-1.8,0-3-1.2-3-3.5c0-2.3,1.3-3.5,3.1-3.5
		c2,0,2.8,1.4,2.9,2.4L72.9,26L72.9,26z M104.5,21.3h-0.7v1.9h-0.3v-1.9h-0.7v-0.3h1.7L104.5,21.3L104.5,21.3z M106.8,23.2h-0.3
		v-1.8l-0.6,1.8h-0.3l-0.6-1.9l0,1.9h-0.3v-2.2h0.4l0.5,1.5c0,0,0,0.1,0.1,0.2c0,0.1,0,0.1,0,0.1l0.1-0.4l0.5-1.5h0.4L106.8,23.2
		L106.8,23.2z"/>
	<ellipse transform="matrix(0.7986 -0.6018 0.6018 0.7986 -7.2568 14.5235)" class="st0" cx="18.1" cy="18.1" rx="18" ry="14"/>
	<path class="st1" d="M3.3,21.4C3.3,21.4,3.3,21.4,3.3,21.4c0-0.1,0.1-0.2,0.1-0.3c0-0.1,0-0.1,0.1-0.2c0,0,0-0.1,0-0.1
		c0.3-0.8,0.8-1.7,1.3-2.5C4.8,18.2,4.9,18.1,5,18l-2.2,0l0.5-1.2c1.8-0.5,4.7-1.5,7.6-4.2l0.1,0h1.5l-1.9,4.1l3.1,0l-0.6,1.2
		l-3.1,0c0,0-1.5,2.9-1.9,5c-0.4,2.3,0,4,2.1,4.7c1.3,0.4,2.9,0.3,4.6-0.2c4-1.3,8.3-4,11.4-7.7c5.2-6,5.3-12.1,0.2-13.7
		c-3.2-1-7.8,0.1-12,2.6c5.3-3.4,11-5,15-3.7c0.7,0.2,1.4,0.6,1.9,0.9C28,2.3,23.3,0,18,0C8.1,0,0,8.1,0,18c0,3.7,1.1,7.1,3,9.9
		C2.3,26.2,2.4,23.9,3.3,21.4z M33.3,8.5c1.2,3.3-0.3,8.2-4.5,13c-6.2,7.3-16.1,11.6-22,9.8C6,31,5.4,30.7,4.9,30.3
		c3.3,3.5,8,5.7,13.1,5.7c9.9,0,18-8.1,18-18C36,14.5,35,11.2,33.3,8.5z"/>
</g>
</svg>
